<?xml version="1.0" standalone="no"?>
<!DOCTYPE svg PUBLIC "-//W3C//DTD SVG 20010904//EN"
 "http://www.w3.org/TR/2001/REC-SVG-20010904/DTD/svg10.dtd">
<svg version="1.0" xmlns="http://www.w3.org/2000/svg"
 width="320.000000pt" height="320.000000pt" viewBox="0 0 320.000000 320.000000"
 preserveAspectRatio="xMidYMid meet">
<metadata>
Created by potrace 1.14, written by Peter Selinger 2001-2017
</metadata>
<g transform="translate(0.000000,320.000000) scale(0.100000,-0.100000)"
fill="#000000" stroke="none">
<path d="M1540 2739 c-369 -78 -688 -345 -885 -739 -65 -130 -77 -162 -64
-171 8 -4 32 24 69 80 377 574 1034 784 1460 468 263 -195 366 -563 246 -881
-67 -176 -197 -306 -363 -362 -155 -52 -369 -27 -515 59 -195 115 -248 300
-107 375 92 49 215 20 460 -106 193 -100 236 -104 289 -31 132 182 104 498
-57 665 -208 215 -595 209 -930 -12 -70 -47 -196 -170 -246 -240 -114 -160
-168 -348 -162 -564 13 -429 272 -742 675 -815 104 -19 284 -13 382 13 267 71
530 268 717 536 64 92 36 91 -59 -2 -84 -83 -227 -191 -290 -221 -19 -9 -36
-19 -38 -23 -2 -5 -9 -8 -17 -8 -7 0 -33 -9 -57 -20 -43 -19 -128 -43 -193
-55 -60 -11 -203 -6 -280 10 -223 46 -389 166 -492 355 -25 47 -61 138 -69
175 -1 6 -8 33 -14 60 -7 28 -14 105 -16 172 -2 98 1 135 17 193 52 189 177
344 344 428 152 76 311 87 424 28 47 -25 116 -96 142 -148 57 -111 77 -321 35
-367 -43 -48 -115 -11 -259 132 -121 120 -183 158 -245 151 -224 -28 -317
-420 -171 -718 84 -170 194 -256 319 -250 209 11 394 70 567 180 143 91 285
256 362 417 71 151 106 327 98 492 -19 356 -279 647 -662 741 -102 24 -307 26
-415 3z"/>
</g>
</svg>
