<svg width="61" height="61" viewBox="0 0 61 61" fill="none" xmlns="http://www.w3.org/2000/svg">
<path fill-rule="evenodd" clip-rule="evenodd" d="M58.7087 28.6032C59.1079 29.0024 59.3321 29.5438 59.3321 30.1084C59.3321 30.673 59.1079 31.2144 58.7087 31.6136L43.6568 46.6654C43.2576 47.0646 42.7162 47.2889 42.1517 47.2889C41.5871 47.2889 41.0457 47.0646 40.6465 46.6654C40.2473 46.2662 40.023 45.7248 40.023 45.1602C40.023 44.5957 40.2473 44.0543 40.6465 43.6551L54.1931 30.1084L40.6465 16.5617C40.2473 16.1625 40.023 15.6211 40.023 15.0566C40.023 14.492 40.2473 13.9506 40.6465 13.5514C41.0457 13.1522 41.5871 12.9279 42.1517 12.9279C42.7162 12.9279 43.2576 13.1522 43.6568 13.5514L58.7087 28.6032Z" fill="white"/>
<path fill-rule="evenodd" clip-rule="evenodd" d="M59.3324 30.1084C59.3327 30.3884 59.2779 30.6657 59.1709 30.9244C59.0639 31.1832 58.9069 31.4183 58.7089 31.6163C58.5109 31.8143 58.2758 31.9712 58.0171 32.0782C57.7583 32.1852 57.481 32.2401 57.201 32.2397L3.01441 32.2397C2.44914 32.2397 1.90703 32.0152 1.50732 31.6155C1.10762 31.2158 0.883066 30.6737 0.883066 30.1084C0.883066 29.5431 1.10762 29.001 1.50732 28.6013C1.90703 28.2016 2.44914 27.9771 3.01441 27.9771L57.201 27.9771C57.481 27.9767 57.7583 28.0316 58.0171 28.1386C58.2758 28.2456 58.5109 28.4025 58.7089 28.6005C58.9069 28.7985 59.0639 29.0336 59.1709 29.2924C59.2779 29.5511 59.3327 29.8284 59.3324 30.1084Z" fill="white"/>
</svg>
