<svg width="24" height="24" viewBox="0 0 24 24" fill="none" xmlns="http://www.w3.org/2000/svg">
<path d="M19.2001 10.8402V8.00023C17.8701 8.00023 16.8551 7.64523 16.2001 6.95523C15.5278 6.16776 15.1512 5.17051 15.1351 4.13523V3.93023L12.4501 3.86523C12.4501 3.86523 12.4501 3.98023 12.4501 4.13523V15.4002C12.3579 15.9035 12.1136 16.3664 11.7501 16.7265C11.3866 17.0865 10.9214 17.3263 10.4172 17.4136C9.91308 17.5008 9.3943 17.4313 8.93092 17.2144C8.46755 16.9974 8.08189 16.6436 7.82601 16.2005C7.57013 15.7574 7.45634 15.2465 7.50002 14.7368C7.5437 14.227 7.74273 13.7429 8.07025 13.3498C8.39777 12.9568 8.83801 12.6737 9.33153 12.5387C9.82505 12.4038 10.3481 12.4235 10.8301 12.5952V9.84523C10.549 9.79919 10.2648 9.77578 9.98005 9.77523C8.95554 9.77523 7.95404 10.079 7.1022 10.6482C6.25035 11.2174 5.58642 12.0264 5.19436 12.9729C4.80229 13.9195 4.69971 14.961 4.89958 15.9658C5.09945 16.9706 5.5928 17.8936 6.31724 18.618C7.04167 19.3425 7.96466 19.8358 8.96948 20.0357C9.9743 20.2356 11.0158 20.133 11.9624 19.7409C12.9089 19.3489 13.7179 18.6849 14.2871 17.8331C14.8563 16.9812 15.1601 15.9797 15.1601 14.9552C15.1595 14.743 15.1461 14.5309 15.1201 14.3202V9.74523C16.341 10.5077 17.7614 10.8889 19.2001 10.8402Z" fill="white"/>
</svg>
