<svg width="61" height="61" viewBox="0 0 61 61" fill="none" xmlns="http://www.w3.org/2000/svg">
<path fill-rule="evenodd" clip-rule="evenodd" d="M1.50811 31.6136C1.10891 31.2144 0.884647 30.673 0.884647 30.1084C0.884647 29.5438 1.10891 29.0024 1.50811 28.6032L16.56 13.5514C16.9592 13.1522 17.5006 12.9279 18.0651 12.9279C18.6297 12.9279 19.1711 13.1522 19.5703 13.5514C19.9695 13.9506 20.1938 14.492 20.1938 15.0566C20.1938 15.6211 19.9695 16.1625 19.5703 16.5617L6.02367 30.1084L19.5703 43.6551C19.9695 44.0543 20.1938 44.5957 20.1938 45.1602C20.1938 45.7248 19.9695 46.2662 19.5703 46.6654C19.1711 47.0646 18.6297 47.2889 18.0651 47.2889C17.5006 47.2889 16.9592 47.0646 16.56 46.6654L1.50811 31.6136Z" fill="white"/>
<path fill-rule="evenodd" clip-rule="evenodd" d="M0.884409 30.1084C0.884055 29.8284 0.938942 29.5511 1.04593 29.2924C1.15291 29.0336 1.30989 28.7985 1.50788 28.6005C1.70586 28.4025 1.94096 28.2456 2.1997 28.1386C2.45845 28.0316 2.73576 27.9767 3.01575 27.9771L57.2024 27.9771C57.7677 27.9771 58.3098 28.2016 58.7095 28.6013C59.1092 29.001 59.3337 29.5431 59.3337 30.1084C59.3337 30.6737 59.1092 31.2158 58.7095 31.6155C58.3098 32.0152 57.7677 32.2397 57.2024 32.2397L3.01575 32.2397C2.73576 32.2401 2.45845 32.1852 2.1997 32.0782C1.94096 31.9712 1.70586 31.8143 1.50788 31.6163C1.30989 31.4183 1.15291 31.1832 1.04593 30.9244C0.938942 30.6657 0.884055 30.3884 0.884409 30.1084Z" fill="white"/>
</svg>
